<svg width="559" height="462" viewBox="0 0 559 462" fill="none" xmlns="http://www.w3.org/2000/svg">
<path d="M0 23.5H90.6002L151.7 145.663L216.395 197.034V23.5H321.823V197.034L394.903 145.663L455.5 23.5H559L475.172 186.384L443.424 207.684L475.172 246.526L429.048 288.5L394.903 246.526L366.15 264.694H167.275L133.131 246.526L100.784 288.5L60.6491 246.526L90.6002 207.684L70.2335 186.384L0 23.5Z" fill="#FF5858"/>
<path d="M289.913 393L390.913 383L459.913 462H289.913V393Z" fill="#D9D9D9"/>
<path d="M405.413 378.5L520.913 258V378.5L471.913 459.5L405.413 378.5Z" fill="#D9D9D9"/>
<path d="M335.5 169.5V0H457L383 140L335.5 169.5Z" fill="#D9D9D9"/>
<path d="M204.5 170.5V0.5H86.5L158.368 140.913L204.5 170.5Z" fill="#D9D9D9"/>
<path d="M287.413 285L367.413 274L386.913 362.5L287.413 378.5V285Z" fill="#D9D9D9"/>
<path d="M129.913 379.304L16.5 275V379.304L64.6145 460.5H241.913V396.5L129.913 379.304Z" fill="#D9D9D9"/>
<path d="M245.913 285.553L167.119 274.5L147.913 363.423L245.913 379.5V285.553Z" fill="#D9D9D9"/>
<path d="M145.148 53.54H135.42L133.628 58.5H130.556L138.62 36.324H141.98L150.012 58.5H146.94L145.148 53.54ZM144.316 51.172L140.284 39.908L136.252 51.172H144.316ZM152.279 38.02V35.364H158.295V58.5H155.351V38.02H152.279Z" fill="black"/>
<path d="M368.148 53.54H358.42L356.628 58.5H353.556L361.62 36.324H364.98L373.012 58.5H369.94L368.148 53.54ZM367.316 51.172L363.284 39.908L359.252 51.172H367.316ZM375.695 56.164C378.404 53.988 380.527 52.2067 382.062 50.82C383.599 49.412 384.889 47.9507 385.935 46.436C387.001 44.9 387.535 43.396 387.535 41.924C387.535 40.5373 387.193 39.4493 386.511 38.66C385.849 37.8493 384.772 37.444 383.279 37.444C381.828 37.444 380.697 37.9027 379.887 38.82C379.097 39.716 378.671 40.9213 378.607 42.436H375.791C375.876 40.0467 376.601 38.2013 377.967 36.9C379.332 35.5987 381.092 34.948 383.247 34.948C385.444 34.948 387.183 35.556 388.463 36.772C389.764 37.988 390.415 39.6627 390.415 41.796C390.415 43.5667 389.881 45.2947 388.815 46.98C387.769 48.644 386.575 50.116 385.231 51.396C383.887 52.6547 382.169 54.1267 380.079 55.812H391.087V58.244H375.695V56.164Z" fill="black"/>
<path d="M94.148 408.54H84.42L82.628 413.5H79.556L87.62 391.324H90.98L99.012 413.5H95.94L94.148 408.54ZM93.316 406.172L89.284 394.908L85.252 406.172H93.316ZM101.983 396.188C102.132 394.225 102.889 392.689 104.255 391.58C105.62 390.471 107.391 389.916 109.567 389.916C111.017 389.916 112.265 390.183 113.311 390.716C114.377 391.228 115.177 391.932 115.711 392.828C116.265 393.724 116.543 394.737 116.543 395.868C116.543 397.191 116.159 398.332 115.391 399.292C114.644 400.252 113.663 400.871 112.447 401.148V401.308C113.833 401.649 114.932 402.321 115.743 403.324C116.553 404.327 116.958 405.639 116.958 407.26C116.958 408.476 116.681 409.575 116.127 410.556C115.572 411.516 114.74 412.273 113.631 412.828C112.521 413.383 111.188 413.66 109.631 413.66C107.369 413.66 105.513 413.073 104.062 411.9C102.612 410.705 101.801 409.02 101.631 406.844H104.447C104.596 408.124 105.119 409.169 106.015 409.98C106.911 410.791 108.105 411.196 109.599 411.196C111.092 411.196 112.223 410.812 112.991 410.044C113.78 409.255 114.175 408.241 114.175 407.004C114.175 405.404 113.641 404.252 112.575 403.548C111.508 402.844 109.897 402.492 107.743 402.492H107.007V400.06H107.775C109.737 400.039 111.22 399.719 112.223 399.1C113.225 398.46 113.727 397.479 113.727 396.156C113.727 395.025 113.353 394.119 112.607 393.436C111.881 392.753 110.836 392.412 109.47 392.412C108.148 392.412 107.081 392.753 106.271 393.436C105.46 394.119 104.98 395.036 104.831 396.188H101.983Z" fill="black"/>
<path d="M186.148 318.54H176.42L174.628 323.5H171.556L179.62 301.324H182.98L191.012 323.5H187.94L186.148 318.54ZM185.316 316.172L181.284 304.908L177.252 316.172H185.316ZM193.343 318.348V316.14L204.575 300.588H208.062V315.82H211.263V318.348H208.062V323.5H205.183V318.348H193.343ZM205.311 303.628L196.703 315.82H205.311V303.628Z" fill="black"/>
<path d="M312.132 312.012C312.943 312.14 313.679 312.471 314.34 313.004C315.023 313.537 315.556 314.199 315.94 314.988C316.345 315.777 316.548 316.62 316.548 317.516C316.548 318.647 316.26 319.671 315.684 320.588C315.108 321.484 314.265 322.199 313.156 322.732C312.068 323.244 310.777 323.5 309.284 323.5H300.964V301.196H308.964C310.479 301.196 311.769 301.452 312.836 301.964C313.903 302.455 314.703 303.127 315.236 303.98C315.769 304.833 316.036 305.793 316.036 306.86C316.036 308.183 315.673 309.281 314.948 310.156C314.244 311.009 313.305 311.628 312.132 312.012ZM303.876 310.828H308.772C310.137 310.828 311.193 310.508 311.94 309.868C312.687 309.228 313.06 308.343 313.06 307.212C313.06 306.081 312.687 305.196 311.94 304.556C311.193 303.916 310.116 303.596 308.708 303.596H303.876V310.828ZM309.028 321.1C310.479 321.1 311.609 320.759 312.42 320.076C313.231 319.393 313.636 318.444 313.636 317.228C313.636 315.991 313.209 315.02 312.356 314.316C311.503 313.591 310.361 313.228 308.932 313.228H303.876V321.1H309.028ZM319.341 303.02V300.364H325.357V323.5H322.413V303.02H319.341Z" fill="black"/>
<path d="M360.132 410.012C360.943 410.14 361.679 410.471 362.34 411.004C363.023 411.537 363.556 412.199 363.94 412.988C364.345 413.777 364.548 414.62 364.548 415.516C364.548 416.647 364.26 417.671 363.684 418.588C363.108 419.484 362.265 420.199 361.156 420.732C360.068 421.244 358.777 421.5 357.284 421.5H348.964V399.196H356.964C358.479 399.196 359.769 399.452 360.836 399.964C361.903 400.455 362.703 401.127 363.236 401.98C363.769 402.833 364.036 403.793 364.036 404.86C364.036 406.183 363.673 407.281 362.948 408.156C362.244 409.009 361.305 409.628 360.132 410.012ZM351.876 408.828H356.772C358.137 408.828 359.193 408.508 359.94 407.868C360.687 407.228 361.06 406.343 361.06 405.212C361.06 404.081 360.687 403.196 359.94 402.556C359.193 401.916 358.116 401.596 356.708 401.596H351.876V408.828ZM357.028 419.1C358.479 419.1 359.609 418.759 360.42 418.076C361.231 417.393 361.636 416.444 361.636 415.228C361.636 413.991 361.209 413.02 360.356 412.316C359.503 411.591 358.361 411.228 356.932 411.228H351.876V419.1H357.028ZM367.757 419.164C370.466 416.988 372.589 415.207 374.125 413.82C375.661 412.412 376.952 410.951 377.997 409.436C379.064 407.9 379.597 406.396 379.597 404.924C379.597 403.537 379.256 402.449 378.573 401.66C377.912 400.849 376.834 400.444 375.341 400.444C373.89 400.444 372.76 400.903 371.949 401.82C371.16 402.716 370.733 403.921 370.669 405.436H367.853C367.938 403.047 368.664 401.201 370.029 399.9C371.394 398.599 373.154 397.948 375.309 397.948C377.506 397.948 379.245 398.556 380.525 399.772C381.826 400.988 382.477 402.663 382.477 404.796C382.477 406.567 381.944 408.295 380.877 409.98C379.832 411.644 378.637 413.116 377.293 414.396C375.949 415.655 374.232 417.127 372.141 418.812H383.149V421.244H367.757V419.164Z" fill="black"/>
<path d="M466.132 346.012C466.943 346.14 467.679 346.471 468.34 347.004C469.023 347.537 469.556 348.199 469.94 348.988C470.345 349.777 470.548 350.62 470.548 351.516C470.548 352.647 470.26 353.671 469.684 354.588C469.108 355.484 468.265 356.199 467.156 356.732C466.068 357.244 464.777 357.5 463.284 357.5H454.964V335.196H462.964C464.479 335.196 465.769 335.452 466.836 335.964C467.903 336.455 468.703 337.127 469.236 337.98C469.769 338.833 470.036 339.793 470.036 340.86C470.036 342.183 469.673 343.281 468.948 344.156C468.244 345.009 467.305 345.628 466.132 346.012ZM457.876 344.828H462.772C464.137 344.828 465.193 344.508 465.94 343.868C466.687 343.228 467.06 342.343 467.06 341.212C467.06 340.081 466.687 339.196 465.94 338.556C465.193 337.916 464.116 337.596 462.708 337.596H457.876V344.828ZM463.028 355.1C464.479 355.1 465.609 354.759 466.42 354.076C467.231 353.393 467.636 352.444 467.636 351.228C467.636 349.991 467.209 349.02 466.356 348.316C465.503 347.591 464.361 347.228 462.932 347.228H457.876V355.1H463.028ZM474.045 340.188C474.194 338.225 474.952 336.689 476.317 335.58C477.682 334.471 479.453 333.916 481.629 333.916C483.08 333.916 484.328 334.183 485.373 334.716C486.44 335.228 487.24 335.932 487.773 336.828C488.328 337.724 488.605 338.737 488.605 339.868C488.605 341.191 488.221 342.332 487.453 343.292C486.706 344.252 485.725 344.871 484.509 345.148V345.308C485.896 345.649 486.994 346.321 487.805 347.324C488.616 348.327 489.021 349.639 489.021 351.26C489.021 352.476 488.744 353.575 488.189 354.556C487.634 355.516 486.802 356.273 485.693 356.828C484.584 357.383 483.25 357.66 481.693 357.66C479.432 357.66 477.576 357.073 476.125 355.9C474.674 354.705 473.864 353.02 473.693 350.844H476.509C476.658 352.124 477.181 353.169 478.077 353.98C478.973 354.791 480.168 355.196 481.661 355.196C483.154 355.196 484.285 354.812 485.053 354.044C485.842 353.255 486.237 352.241 486.237 351.004C486.237 349.404 485.704 348.252 484.637 347.548C483.57 346.844 481.96 346.492 479.805 346.492H479.069V344.06H479.837C481.8 344.039 483.282 343.719 484.285 343.1C485.288 342.46 485.789 341.479 485.789 340.156C485.789 339.025 485.416 338.119 484.669 337.436C483.944 336.753 482.898 336.412 481.533 336.412C480.21 336.412 479.144 336.753 478.333 337.436C477.522 338.119 477.042 339.036 476.893 340.188H474.045Z" fill="black"/>
</svg>
